<?xml version="1.0" encoding="utf-8"?>
<!-- Generator: Adobe Illustrator 27.0.1, SVG Export Plug-In . SVG Version: 6.00 Build 0)  -->
<svg version="1.1" id="Layer_1" xmlns="http://www.w3.org/2000/svg" xmlns:xlink="http://www.w3.org/1999/xlink" x="0px" y="0px"
	 viewBox="0 0 841.9 351.5" style="enable-background:new 0 0 841.9 351.5;" xml:space="preserve">
<style type="text/css">
	.st0{fill:#FFCB05;}
	.st1{clip-path:url(#SVGID_00000085967774124810863130000007366634747230981022_);}
	.st2{clip-path:url(#SVGID_00000076601427332310352230000004159939641097965189_);}
	.st3{fill:#163557;}
	.st4{fill:#143456;}
	.st5{fill:#73773E;}
</style>
<path d="M383.7,256.1c-1.5-0.2-2.6-1.7-2.6-3.2V95c2.7-3.1,6.1-1.2,6.1,1.5v156.5C387.3,254.9,385.6,256.4,383.7,256.1L383.7,256.1z
	"/>
<path class="st0" d="M797.1,85.6c-20.5-20.5-53.7-20.5-74.2,0c-20.5,20.5-20.5,53.7,0,74.2L760,197l36.7-36.7
	c0.2-0.2,0.3-0.3,0.5-0.4C817.6,139.4,817.6,106.1,797.1,85.6L797.1,85.6z"/>
<g>
	<defs>
		<polygon id="SVGID_1_" points="-188,67.7 815.7,67.7 815.7,1468.3 -188,1468.3 -188,67.7 		"/>
	</defs>
	<defs>
		<path id="SVGID_00000057835804868229258590000002488035689815038902_" d="M797.1,85.6c-20.5-20.5-53.7-20.5-74.2,0
			c-20.5,20.5-20.5,53.7,0,74.2L760,197l36.7-36.7c0.2-0.2,0.3-0.3,0.5-0.4C817.6,139.4,817.6,106.1,797.1,85.6L797.1,85.6
			L797.1,85.6z"/>
	</defs>
	<clipPath id="SVGID_00000127042313187822012390000004456992801520996268_">
		<use xlink:href="#SVGID_1_"  style="overflow:visible;"/>
	</clipPath>
	
		<clipPath id="SVGID_00000120519890439799870620000017124510003177118358_" style="clip-path:url(#SVGID_00000127042313187822012390000004456992801520996268_);">
		<use xlink:href="#SVGID_00000057835804868229258590000002488035689815038902_"  style="overflow:visible;"/>
	</clipPath>
	<path style="clip-path:url(#SVGID_00000120519890439799870620000017124510003177118358_);" d="M759.5,140.6
		c-59.1,0-107.6-36.7-112.5-83.4c-0.3,2.6-0.4,17.5-0.4,20.1c0,50.3,50.6,91.2,112.9,91.2c62.4,0,112.9-40.8,112.9-91.2
		c0-2.6-0.2-17.5-0.4-20.1C867.2,103.9,818.7,140.6,759.5,140.6L759.5,140.6z"/>
	<path style="clip-path:url(#SVGID_00000120519890439799870620000017124510003177118358_);" d="M759.5,90
		C700.4,90,651.9,53.2,647,6.5c-0.3,2.5-0.4,17.5-0.4,20.1c0,50.4,50.6,91.2,112.9,91.2c62.4,0,112.9-40.8,112.9-91.2
		c0-2.6-0.2-17.5-0.4-20.1C867.2,53.2,818.7,90,759.5,90L759.5,90z"/>
</g>
<path d="M797.1,85.6l1.6-1.6C788,73.4,774,68,760,68c-14,0-28,5.3-38.7,16c-10.7,10.7-16,24.7-16,38.7c0,14,5.3,28,16,38.7
	l38.7,38.7l38.2-38.2l0,0c0.1-0.1,0.3-0.2,0.4-0.4l0,0l0,0c10.7-10.7,16-24.7,16-38.7c0-14-5.4-28-16-38.7L797.1,85.6l-1.6,1.6
	c9.8,9.8,14.7,22.7,14.7,35.5s-4.9,25.7-14.7,35.5l1.6,1.6l-1.5-1.6c-0.1,0.1-0.3,0.3-0.5,0.5l0,0L760,193.8l-35.5-35.5
	c-9.8-9.8-14.7-22.7-14.7-35.5c0-12.9,4.9-25.7,14.7-35.5c9.8-9.8,22.7-14.7,35.5-14.7c12.9,0,25.7,4.9,35.5,14.7L797.1,85.6
	L797.1,85.6z"/>
<path d="M491,189.8c0,3.4-1.7,6-5.2,7.8l-9.4,4.7l-4.2-49.9c-0.4-4-2.7-6-6.9-6h-17v51.1c0,2-1.1,3.1-3.2,3.1h-30.6l3.6-9.6
	c1.2-3.1,3.7-4.6,7.3-4.6h7.6l-3.1-27.6c-0.5-4.2,2-8.3,7.4-12.3h-19.1l4.1-8.6c2-4,5.2-6,9.7-6h42c5.4,0,9.5,1.7,12.5,5
	c3,3.4,4.5,7.6,4.5,12.8V189.8L491,189.8z"/>
<path d="M553.7,189.8c0,3.4-1.8,6-5.3,7.8l-9.5,4.7l-4-49.9c-0.4-4-2.7-6-7.1-6h-29.9l4.1-8.6c2-4,5.2-6,9.7-6h25
	c5.4,0,9.5,1.7,12.5,5c3,3.4,4.5,7.6,4.5,12.8V189.8L553.7,189.8z"/>
<path d="M589.1,189.1c0,3.8-1.6,6.6-4.8,8.2l-9.7,4.8l-3.9-55.9h-10.8l3.9-8c2-4.3,4.9-6.5,8.6-6.5h13.2c2.2,0,3.3,1.2,3.3,3.5
	V189.1L589.1,189.1z"/>
<path d="M625.3,189.1c0,3.8-1.6,6.6-4.8,8.2l-9.7,4.8l-3.9-55.9h-10.8l3.9-8c2-4.3,4.9-6.5,8.6-6.5h13.2c2.2,0,3.3,1.2,3.3,3.5
	V189.1L625.3,189.1z"/>
<path d="M689.6,175.9c0,4.5-1.5,8.6-4.5,12.1l-6.5,7.5c-2.9,3.4-7,5-12.4,5h-19.8c-4.5,0-7.7-2.1-9.6-6.3l-3.7-8.4h34.5
	c1.9,0,3.4-0.6,4.3-1.9c0.9-1.2,1.3-2.8,1.3-4.5l-2.3-27.4c-0.4-3.8-2.4-5.7-5.9-5.7h-31.5l4.2-8.6c1.9-4,5.1-6,9.6-6h23.2
	c12.8,0,19.3,6.6,19.3,19.9V175.9L689.6,175.9z"/>
<path d="M435.8,242.6c0,0.5-0.2,0.8-0.7,0.8H418c-0.5,0-0.7-0.3-0.7-0.8v-10.8c0-1.3,0.5-2.4,1.5-3.4l1-1.1h-4.2l1.1-2.3
	c0.6-1.4,1.7-2.1,3.3-2.1h10.6c3.6,0,5.3,2,5.3,5.9V242.6L435.8,242.6z M431.1,239.1l-0.8-9.8c-0.1-1.4-0.8-2.1-2.1-2.1h-6.4
	l0.9,11.8H431.1L431.1,239.1z"/>
<path d="M446.3,224.1l-1,9.4c-0.1,1-0.5,1.7-1.3,2.2l-2.6,1.5l-0.7-9.9h-3.4l1.1-2.5c0.3-0.7,0.6-1.2,1-1.4c0.3-0.2,0.9-0.4,1.6-0.4
	h4.5C446,223,446.4,223.3,446.3,224.1L446.3,224.1z"/>
<path d="M465.4,229.4c0,0.7-0.6,1.8-1.8,3.3l-9.6,11.3l-1.1-2.2c-0.3-0.5-0.4-1-0.4-1.5c0-0.8,0.3-1.5,0.9-2.3l6.7-9.4
	c0.1-0.2,0.2-0.4,0.2-0.6c0-0.4-0.2-0.6-0.7-0.6h-11.3v-8.6c0-0.9,0.4-1.6,1.3-2.1l2.8-1.4l1.3,7.8h5.9c1.5,0,2.7,0.5,3.4,1.6
	l1.5,2.1C465.1,227.5,465.4,228.4,465.4,229.4L465.4,229.4z"/>
<path d="M475.1,224.1l-1,9.4c-0.1,1-0.5,1.7-1.3,2.2l-2.6,1.5l-0.7-9.9H466l1.1-2.5c0.3-0.7,0.6-1.2,1-1.4c0.3-0.2,0.9-0.4,1.6-0.4
	h4.5C474.9,223,475.2,223.3,475.1,224.1L475.1,224.1z"/>
<path d="M485.5,224.1l-1,9.4c-0.1,1-0.5,1.7-1.3,2.2l-2.6,1.5l-0.7-9.9h-3.4l1.1-2.5c0.3-0.7,0.6-1.2,1-1.4c0.3-0.2,0.9-0.4,1.6-0.4
	h4.5C485.3,223,485.6,223.3,485.5,224.1L485.5,224.1z"/>
<path d="M507.5,240.2c0,1-0.5,1.8-1.6,2.3l-2.8,1.4l-1.2-14.8c-0.1-1.2-0.8-1.8-2.1-1.8h-5.7v12.9c0,1-0.6,1.7-1.7,2.3l-2.8,1.4
	l-1-11.7c-0.1-0.8,0-1.6,0.4-2.2c0.2-0.5,0.7-1.1,1.5-1.8l0.9-0.9h-4.1l1.2-2.6c0.6-1.2,1.5-1.8,2.9-1.8h11c1.6,0,2.9,0.5,3.8,1.5
	c0.8,1,1.2,2.2,1.2,3.8V240.2L507.5,240.2z"/>
<path d="M526.7,229.4c0,0.7-0.6,1.8-1.8,3.3l-9.6,11.3l-1.1-2.2c-0.3-0.5-0.4-1-0.4-1.5c0-0.8,0.3-1.5,0.9-2.3l6.7-9.4
	c0.1-0.2,0.2-0.4,0.2-0.6c0-0.4-0.2-0.6-0.7-0.6h-11.3v-8.6c0-0.9,0.4-1.6,1.3-2.1l2.8-1.4l1.3,7.8h5.9c1.5,0,2.7,0.5,3.4,1.6
	l1.5,2.1C526.4,227.5,526.7,228.4,526.7,229.4L526.7,229.4z"/>
<path d="M556.7,240.2c0,1-0.5,1.8-1.6,2.3l-2.8,1.4l-1.2-14.8c-0.1-1.2-0.8-1.8-2.1-1.8h-5v15.2c0,0.6-0.3,0.9-1,0.9H534l1.1-2.8
	c0.4-0.9,1.1-1.4,2.2-1.4h2.3l-0.9-8.2c-0.1-1.3,0.6-2.5,2.2-3.7h-5.7l1.2-2.6c0.6-1.2,1.5-1.8,2.9-1.8h12.5c1.6,0,2.8,0.5,3.7,1.5
	c0.9,1,1.3,2.3,1.3,3.8V240.2L556.7,240.2z"/>
<path d="M567,240c0,1.1-0.5,1.9-1.4,2.4l-2.9,1.4l-1.2-16.6h-3.2l1.2-2.4c0.6-1.3,1.5-1.9,2.6-1.9h3.9c0.7,0,1,0.3,1,1.1V240
	L567,240z"/>
<path d="M589.3,240.2c0,1-0.5,1.8-1.6,2.3l-2.8,1.4l-1.2-14.8c-0.1-1.2-0.8-1.8-2.1-1.8h-5.7v12.9c0,1-0.6,1.7-1.7,2.3l-2.8,1.4
	l-1-11.7c-0.1-0.8,0-1.6,0.4-2.2c0.2-0.5,0.7-1.1,1.5-1.8l0.9-0.9h-4.1l1.2-2.6c0.6-1.2,1.5-1.8,2.9-1.8h11c1.6,0,2.9,0.5,3.8,1.5
	c0.8,1,1.2,2.2,1.2,3.8V240.2L589.3,240.2z"/>
<path d="M599.4,240c0,1.1-0.5,1.9-1.4,2.4l-2.9,1.4l-1.2-16.6h-3.2l1.2-2.4c0.6-1.3,1.5-1.9,2.6-1.9h3.9c0.7,0,1,0.3,1,1.1V240
	L599.4,240z"/>
<path d="M612.7,242.6c0,0.5-0.3,0.7-0.8,0.7H601l1.1-2.6c0.5-1.2,1.4-1.7,2.8-1.7h3l-0.7-10c-0.1-1.2-0.7-1.7-1.9-1.7h-3.4l1.2-2.6
	c0.6-1.2,1.5-1.8,2.9-1.8h2.1c3.1,0,4.6,1.7,4.6,5.2V242.6L612.7,242.6z"/>
<path d="M633.7,240.2c0,1-0.5,1.8-1.6,2.3l-2.8,1.4l-1.3-14.8c-0.1-1.2-0.8-1.8-2.1-1.8h-11.2l1.2-2.6c0.5-1.2,1.5-1.8,2.9-1.8h9.7
	c1.6,0,2.9,0.5,3.8,1.5c0.9,1,1.3,2.3,1.3,3.8V240.2L633.7,240.2z M620.6,240.2c0,1-0.5,1.8-1.6,2.3l-2.8,1.4l-0.8-8
	c-0.1-0.7-0.1-1-0.1-1.1c0-1.2,0.7-2.2,2.1-2.8l3.1-1.5V240.2L620.6,240.2z"/>
<path d="M665.3,240.2c0,1-0.5,1.8-1.6,2.3l-2.8,1.4l-1.2-14.8c-0.1-1.2-0.8-1.8-2.1-1.8h-5v15.2c0,0.6-0.3,0.9-1,0.9h-9.1l1.1-2.8
	c0.4-0.9,1.1-1.4,2.2-1.4h2.3l-0.9-8.2c-0.1-1.3,0.6-2.5,2.2-3.7h-5.7l1.2-2.6c0.6-1.2,1.5-1.8,2.9-1.8h12.5c1.6,0,2.8,0.5,3.7,1.5
	c0.9,1,1.3,2.3,1.3,3.8V240.2L665.3,240.2z"/>
<path d="M675.6,240c0,1.1-0.5,1.9-1.4,2.4l-2.9,1.4l-1.2-16.6h-3.2l1.2-2.4c0.6-1.3,1.5-1.9,2.6-1.9h3.9c0.7,0,1,0.3,1,1.1V240
	L675.6,240z"/>
<path d="M686.3,224.1l-1,9.4c-0.1,1-0.5,1.7-1.3,2.2l-2.6,1.5l-0.7-9.9h-3.4l1.1-2.5c0.3-0.7,0.6-1.2,1-1.4c0.3-0.2,0.9-0.4,1.6-0.4
	h4.5C686.1,223,686.4,223.3,686.3,224.1L686.3,224.1z"/>
<path d="M696.3,240c0,1.1-0.5,1.9-1.4,2.4l-2.9,1.4l-1.1-16.6h-3.2l1.2-2.4c0.6-1.3,1.5-1.9,2.6-1.9h3.9c0.7,0,1,0.3,1,1.1V240
	L696.3,240z"/>
<path d="M709.7,242.6c0,0.5-0.3,0.7-0.8,0.7H698l1.1-2.6c0.5-1.2,1.4-1.7,2.8-1.7h3.1l-0.7-10c-0.1-1.2-0.7-1.7-1.9-1.7h-3.4
	l1.2-2.6c0.6-1.2,1.5-1.8,2.9-1.8h2.1c3.1,0,4.6,1.7,4.6,5.2V242.6L709.7,242.6z"/>
<path d="M731.8,240.2c0,1-0.5,1.8-1.6,2.3l-2.8,1.4l-1.2-14.8c-0.1-1.2-0.8-1.8-2.1-1.8h-5.7v12.9c0,1-0.6,1.7-1.7,2.3l-2.8,1.4
	l-1-11.7c-0.1-0.8,0-1.6,0.4-2.2c0.2-0.5,0.7-1.1,1.5-1.8l1-0.9h-4.1l1.2-2.6c0.6-1.2,1.5-1.8,2.9-1.8h11c1.6,0,2.9,0.5,3.8,1.5
	c0.8,1,1.2,2.2,1.2,3.8V240.2L731.8,240.2z"/>
<path d="M763.5,240.2c0,1-0.5,1.8-1.6,2.3l-2.8,1.4l-1.2-14.8c-0.1-1.2-0.8-1.8-2.1-1.8h-5.1v15.2c0,0.6-0.3,0.9-0.9,0.9h-9.1
	l1.1-2.8c0.4-0.9,1.1-1.4,2.2-1.4h2.3l-0.9-8.2c-0.1-1.3,0.6-2.5,2.2-3.7h-5.7l1.2-2.6c0.6-1.2,1.5-1.8,2.9-1.8h12.5
	c1.6,0,2.8,0.5,3.7,1.5c0.9,1,1.3,2.3,1.3,3.8V240.2L763.5,240.2z"/>
<path d="M792.6,224.8l-1.8,10c-0.3,1.9-1.6,3.8-3.7,5.7c-2.1,1.9-4.2,2.8-6.2,2.8H771c-0.3,0-0.5-0.2-0.6-0.7l-2.8-15.4h-2.5
	l0.9-2.3c0.3-0.8,0.6-1.3,0.9-1.5c0.4-0.3,1.1-0.5,2-0.5h2.7c0.7,0,1.1,0.3,1.1,1.1l1.6,15h5.7c3.6,0,5.5-1.5,5.8-4.5l0.7-6.9
	c0-0.2-0.1-0.3-0.2-0.3h-2.8l1.2-2.7c0.5-1.1,1.3-1.7,2.4-1.7h3.9c0.9,0,1.4,0.4,1.4,1.3C792.6,224.4,792.6,224.6,792.6,224.8
	L792.6,224.8z M782.5,224.3l-0.6,8.7c-0.1,1.2-0.8,2.2-2,2.8l-2,0.9l-0.5-9.5h-2.9l0.9-2.3c0.3-0.8,0.6-1.3,0.9-1.6
	c0.3-0.3,0.9-0.4,1.7-0.4h3.3C782.2,223,782.6,223.4,782.5,224.3L782.5,224.3z"/>
<path d="M810.4,240.2c0,1-0.5,1.8-1.6,2.3l-2.8,1.4l-1.2-14.8c-0.1-1.2-0.8-1.8-2.1-1.8h-8.9l1.2-2.6c0.6-1.2,1.5-1.8,2.9-1.8h7.4
	c1.6,0,2.8,0.5,3.7,1.5c0.9,1,1.3,2.3,1.3,3.8V240.2L810.4,240.2z"/>
<path class="st3" d="M203.2,125.1c0,0,16.9-21.4,37.2-19.9c18.5,1.4,29.7,26.5,31.3,33.2c0,0,15.8-26,43.1-20.1
	c0,0,26.5,6.4,29.3,38.7c3.1,35.4-46.1,89.3-50.1,93.2c0,0,56.3-41,59.8-86.3c3.6-45.8-30.3-54.6-37.7-56.2c0,0-20.2-6.5-42.7,16
	c0,0-11.3-20.9-31.4-22.5C218.2,99.5,206.1,121.3,203.2,125.1"/>
<path class="st4" d="M46.7,243.4v-7.4h1.7c3.1,0,4.2-1.3,4.2-4.8V197h-9.4v-11.4h9v3.9h9.8V232c0,8-3.3,11.4-10.9,11.4H46.7
	L46.7,243.4z"/>
<polygon class="st4" points="65.4,189.4 74.8,189.4 74.8,220.4 65.4,220.4 65.4,189.4 "/>
<polygon class="st4" points="78.3,189.4 87.7,189.4 87.7,220.4 78.3,220.4 78.3,189.4 "/>
<path class="st4" d="M91.2,243.4v-53.9h16.2c4.3,0,6.3,2,6.3,6.4v47.5h-9.4v-44.7c0-1.3-0.5-1.8-1.8-1.8h-1.8v46.5H91.2L91.2,243.4z
	"/>
<path class="st4" d="M130.2,243.4v-44.7c0-1.3-0.6-1.8-1.8-1.8h-11.2v-7.5h16.2c4.5,0,6.4,2,6.4,6.4v47.5H130.2L130.2,243.4z
	 M117.2,243.4v-40.7h9.5v40.7H117.2L117.2,243.4z"/>
<polygon class="st4" points="152.1,189.4 161.7,189.4 161.7,251.6 152.1,251.6 152.1,189.4 "/>
<path class="st4" d="M179.4,189.4h9.5v45.3c0,6-2.5,8.6-8.7,8.6h-15.7v-7.4h3.2c-1.1-1.5-1.7-3.3-1.5-5.2v-41.3h9.5v44
	c0,1.5,0.6,2.4,2,2.4c1.4,0,1.8-0.9,1.8-2.4L179.4,189.4L179.4,189.4z"/>
<path class="st4" d="M216.1,197.3v46h-12v-7.4h2.5v-36.2c0-1.8-0.8-2.9-2.2-2.9c-1.4,0-2.4,1.1-2.4,2.9v43.6h-9.5v-53.8h9.5v2.5
	c1.5-1.9,3.9-2.9,6.3-2.8C212.8,189.3,216.1,191.9,216.1,197.3L216.1,197.3z"/>
<path class="st4" d="M221.8,243.4v-7.4h1.7c3.2,0,4.3-1.3,4.3-4.8V197h-9.5v-11.4h9.1v3.9h9.9V232c0,8-3.3,11.4-11,11.4H221.8
	L221.8,243.4z"/>
<path class="st5" d="M72,185.5v-43.2c0-1.3-0.5-1.8-1.8-1.8H57.4v-8.9h19.1c4.9,0,6.9,2.2,6.9,7v46.8H72L72,185.5z M57.4,185.5
	v-38.9h11.5v38.9H57.4L57.4,185.5z"/>
<path class="st5" d="M87.7,131.7h23.4v8.9c-2.3,0-3,0.7-3,3.2v41.7H96.8v-38.6c0-3.1,0.5-5.1,1.9-6.4H87.7V131.7L87.7,131.7z"/>
<polygon class="st5" points="116.1,131.7 127.6,131.7 127.6,185.4 116.1,185.4 116.1,131.7 "/>
<path class="st5" d="M143.1,131.7c4.9,0,7,2.1,7,6.9v46.8h-11.4v-4.2l-5.5,4.4h-1V175l6.5-4.8v-27.8c0-1.3-0.6-1.8-1.8-1.8h-2.6
	v-8.9H143.1L143.1,131.7z"/>
<path class="st5" d="M183.3,184.3v1.1h-11.5l-6.5-23.7h-0.3l0.6,12.7v11.1h-10.5v-53.8h10l6,19.6c0.5-0.1,0.5-0.5,0.5-1v-18.6h11
	v19.9c0,5.9-2.3,8.7-7.3,9.7L183.3,184.3L183.3,184.3z"/>
<path class="st5" d="M202.5,185.5v-43.2c0-1.3-0.5-1.8-1.8-1.8h-12.8v-8.9H207c4.9,0,6.9,2.2,6.9,7v46.8H202.5L202.5,185.5z
	 M187.9,185.5v-38.9h11.4v38.9H187.9L187.9,185.5z"/>
<path class="st5" d="M318.5,180.9c-1.2-2-1.2-4.5,0-6.5l8.6-14.9c1.5-2.5,0.6-5.7-1.9-7.2c-0.8-0.5-1.7-0.7-2.7-0.7h-17.3
	c-2.4,0-4.5-1.2-5.7-3.3l-8.6-14.9c-1.5-2.5-4.7-3.4-7.3-1.9c-0.8,0.5-1.5,1.1-1.9,1.9l-8.6,14.9c-1.2,2-3.4,3.3-5.8,3.2h-17.2
	c-2.9,0-5.3,2.3-5.3,5.3c0,0.9,0.2,1.9,0.7,2.7l8.6,14.9c1.2,2,1.2,4.5,0,6.5l-8.6,14.9c-1.5,2.5-0.6,5.8,1.9,7.2
	c0.8,0.5,1.7,0.7,2.7,0.7h17.2c2.4,0,4.5,1.3,5.7,3.3l8.6,14.9c1.5,2.5,4.7,3.4,7.3,2c0.8-0.5,1.5-1.1,2-2l8.6-14.9
	c1.2-2,3.4-3.3,5.7-3.3h17.3c2.9,0,5.3-2.4,5.3-5.3c0-0.9-0.2-1.8-0.7-2.7L318.5,180.9L318.5,180.9z M267.2,173.7L261,163h12.4
	c2.2,0,4.2-0.9,5.7-2.5c1.1,1.1,2.2,2.1,3.4,2.9c0.3,0.2,0.4,0.5,0.4,0.8c0,0.9,0,1.9,0,2.9c-1-0.4-1.9-0.8-2.8-1.4
	c-0.9-0.5-1.7-1.1-2.5-1.7c-0.1,1.2-0.1,2.5,0,3.7c0.2,1.6,1.1,3.1,2.4,4.1c0.8,0.7,1.7,1.3,2.5,1.8c0.3,0.2,0.5,0.5,0.5,0.9
	c0,0.9,0,1.9,0,2.9c0,0.2,0,0.4,0,0.6c-2.1-0.8-4.1-1.9-5.9-3.2c-0.1,0.2-0.1,0.5-0.1,0.7c-0.1,2.3,0.8,4.5,2.4,6.1
	c1,1,2.1,1.9,3.3,2.7c0.2,0.1,0.4,0.3,0.3,0.6c0,2.7,0,5.4,0,8.1c0,0.2-0.1,0.4-0.3,0.6c-0.9,0.6-1.9,1.3-2.8,1.9
	c-1.4-2.2-3.9-3.5-6.5-3.5h-12.4l6.2-10.7C268.6,179,268.6,176.1,267.2,173.7L267.2,173.7L267.2,173.7z M305.5,181.5l6.2,10.7h-11.9
	c1.6-1,2.7-2.6,3.2-4.4c0.5-1.9,0.6-3.8,0.3-5.8v-0.1l-0.2,0.2c-1,1.9-2.3,3.6-4,4.9c-1,0.8-1.9,1.7-2.8,2.7
	c-0.4,0.4-0.7,0.8-1.2,1.4c0-0.2,0-0.3,0-0.5c0.1-0.9,0.2-1.8,0.3-2.7c0-0.4,0-0.7,0-1.1c-0.1-0.7,0.1-1.3,0.6-1.8
	c0.3-0.3,0.5-0.5,0.8-0.8c1.1-1,1.9-2.2,2.5-3.5c0.8-1.6,1.4-3.3,1.7-5c0.3-2,0.2-4-0.4-5.9v-0.1c-0.2,0.1-0.3,0.3-0.3,0.4
	c-0.7,1.5-1.6,2.9-2.6,4.2l-0.2,0.3c-0.1,0.1,0,0-0.1,0v-0.6c-0.1-0.8-0.8-1.5-1.6-1.5c-1.1,0-2,0.9-2,2l0,0.2
	c0.1,0.5,0.2,1,0.3,1.5c0.1,0.9,0,1.7-0.2,2.6l-0.1,0.1l-0.2-0.3c-0.3-0.9-0.6-1.8-1-2.7c-0.1-0.4-0.1-0.7,0-1.1
	c0.2-0.4,0.4-0.8,0.6-1.2c0.6-1.2,1.3-2.4,1.9-3.6c0.8-1.4,1.3-3,1.5-4.6c0.1-0.6,0.1-1.2,0.2-1.8c0,0,0-0.4,0-1
	c0.8,0.3,1.7,0.4,2.5,0.4h12.3l-6.1,10.7C304.2,176.2,304.1,179.1,305.5,181.5L305.5,181.5L305.5,181.5z M282.7,206.5h-0.4
	c-0.1-0.1-0.1-0.3,0-0.4c0.2-0.4,0.4-0.7,0.6-1c0.3-0.3,0.6-0.5,0.9-0.7l0.6-0.3c0.9-0.5,1.8-0.9,2.6-1.5c1.3-0.8,2.6-1.7,3.7-2.8
	c0.1-0.1,0.3-0.3,0.4-0.4c0.4-0.5,1-0.8,1.6-0.9h0.2h0.1l-0.3,0.4l-0.3,0.3c-0.9,1-2,1.9-3.1,2.7l-0.9,0.6l-3.6,2.4l-1.5,1
	C283.2,206.2,283,206.4,282.7,206.5L282.7,206.5z M296,176.8c-0.1,0.2-0.3,0.5-0.4,0.7c0-0.2,0-0.5,0.1-0.7v-0.4l-0.1-0.3h0.7
	C296.2,176.4,296.2,176.6,296,176.8L296,176.8L296,176.8z M295.8,175.8c-0.5,0.1-0.5,0.1-0.5,0.6v0.2c0,0.1,0,0.2-0.1,0.4v0.2
	l-0.7,2.5l-0.1,0.4c-0.2-0.3-0.3-0.6-0.2-0.9c0.1-0.5,0.2-1,0.2-1.5l0.1-0.7v-0.2l0.1-0.5c0.1-0.3,0-0.6-0.3-0.8
	c-0.2-0.3-0.4-0.6-0.4-0.9c-0.1-0.6,0.4-1.2,1-1.4c0.6-0.2,1.2-0.1,1.7,0.4c0.4,0.4,0.5,1,0.3,1.5
	C296.7,175.3,296.3,175.7,295.8,175.8L295.8,175.8L295.8,175.8z M295,158.9c-0.2,0.7-0.3,1.4-0.5,2c-0.5,2.2-0.9,4.4-1.3,6.6
	c-0.1,0.5-0.2,1-0.3,1.5c-0.3,2-0.6,4-0.8,5.9H292c0-0.2-0.1-0.5-0.2-0.7c-0.5-2.4-0.8-4.8-0.8-7.2c0-0.5,0.1-1.1,0.1-1.6
	c0.1-0.9,0.4-1.8,0.8-2.7c0.4-1,0.9-2,1.4-2.9c0.3-0.6,0.6-1.2,0.9-1.8c0.3-0.6,0.7-1.2,1-1.8l0.3-0.4h0.1c0,0.2-0.1,0.4-0.2,0.6
	L295,158.9L295,158.9z M286.5,145.3v2.7c0,8.7,0,21.3,0,21.3h-0.1h-0.2c-0.8-0.5-1.5-1-2.4-1.5c-0.3-0.2-0.5-0.5-0.5-0.9
	c0-4.4,0-8.8,0-13.2v-0.3c0-0.2,0-0.5,0-0.7v-2.1v-1.4c0-0.8,0.1-1.6,0.2-2.4c0.2-1.1,0.4-2.1,0.8-3.2c0.4-1.1,0.9-2.1,1.5-3.1
	c0.1-0.2,0.3-0.4,0.5-0.6h0.1L286.5,145.3L286.5,145.3L286.5,145.3z M280.6,154L280.6,154c0.3,0.2,0.5,0.5,0.8,0.8
	c0.1,0.1,0.2,0.3,0.3,0.4l0.2,0.5l0.2,0.4c0.1,0.4,0.2,0.7,0.2,1.1c0.1,1.1,0.2,2.2,0.3,3.3c0,0.3,0,0.6,0.1,0.8h-0.1l-0.1-0.2
	c-0.7-1.2-1.4-2.4-2.1-3.6l-1-1.8l-1.6-2.9l-0.4-0.7h0.1c0.9,0.3,1.7,0.7,2.5,1.3C280.2,153.6,280.4,153.8,280.6,154L280.6,154
	L280.6,154z M278.1,165.1l0.3,0.1l5,3.1l2.8,1.7l0.2,0.2c1.4,0.9,2.6,2,3.6,3.3c0.4,0.5,0.7,1.1,1.1,1.6l0.2,0.3
	c1,1.9,1.9,3.8,2.6,5.8c0.1,0.4,0.3,0.7,0.5,1c0-0.2,0.1-0.4,0.2-0.6c0.3-1.2,0.7-2.5,1.2-3.6c0.3-0.6,0.6-1.1,1-1.6
	c1.1-1.6,2.2-3.2,3.2-4.8l0.2-0.3h0.1c0,0.2-0.1,0.4-0.2,0.6c-0.2,1.1-0.6,2.2-1,3.3l-3.7,9.3l-0.2,0.5c-0.2,0.5-0.3,1-0.4,1.5
	c-0.1,0.4-0.1,0.7,0,1.1c0.2,0.7,0.2,1.5,0,2.2c0,0.3-0.1,0.6-0.2,0.9c-0.3,1-0.6,2.1-1,3.1c0,0.2-0.1,0.3-0.1,0.5l0.2-0.4
	c0.5-0.9,1.1-1.8,1.6-2.7c0.5-0.7,1.1-1.4,1.8-2c1.4-1.3,2.6-2.6,3.9-3.9c0.3-0.3,0.6-0.6,0.9-1c0,0.2,0,0.2,0,0.3l-0.2,0.4
	c-0.5,1.8-1.3,3.4-2.4,4.9c-0.7,0.7-1.5,1.4-2.2,2.1l-1.8,1.6l-0.3,0.3c-0.3,0.4-0.6,0.8-0.8,1.3c-0.1,0.2-0.2,0.5-0.4,0.7
	c-0.1,0.2-0.2,0.3-0.5,0.1l-0.3-0.2l-1.3-0.9c-0.2-0.1-0.2-0.3-0.2-0.4c0.1-0.4,0.1-0.8,0.2-1.2c0.2-1.5-0.2-3.1-1.1-4.4l-0.2-0.2
	c-0.2-0.3-0.5-0.5-0.7-0.8l-0.3-0.2l0.1-0.1l0.6,0.2l0.7,0.3c0-0.2,0-0.3-0.1-0.3c-0.2-0.3-0.4-0.5-0.6-0.8c-1.4-1.5-3.1-2.9-4.9-4
	l-5.1-3.3c-0.9-0.6-1.7-1.4-2.2-2.4c-0.1-0.3-0.3-0.6-0.4-0.9l0.3,0.1l5.7,2.9l0.7,0.4c0.5,0.3,1.1,0.6,1.5,1c0.5,0.4,1,0.8,1.4,1.2
	c0.9,0.9,1.8,1.8,2.6,2.8c0.5,0.6,1,1.3,1.4,2v0.1c0.1,0.2,0.3,0.4,0.5,0.5c0.1-0.6,0.1-1.3-0.1-1.9c-0.1-0.6-0.4-1.2-0.6-1.8h-0.5
	c-0.7,0-1.3-0.4-1.4-1.1c0-0.2,0-0.4,0-0.6v-0.4c0-0.3,0.2-0.6,0.5-0.8c0.1-0.1,0.3-0.2,0.5-0.2c0.5-0.1,1,0,1.3,0.4
	c0.3,0.2,0.4,0.6,0.5,0.9c0.1,0.3,0,0.6-0.1,0.9c-0.1,0.2-0.1,0.5-0.1,0.7c0,0.4,0.1,0.7,0.3,1.1l0.1,0.2c0.4,0.8,0.7,1.7,0.8,2.6
	c0.1,0.4,0.1,0.7,0.2,1.1v0.3l0.1,0.2l0.2-0.4c0.1-0.3,0.2-0.6,0.2-1v-0.1c0.4-1.7,0.2-3.5-0.5-5.1c-1.3-3-2.9-5.8-4.9-8.4
	c-1.1-1.4-2.6-2.6-4.2-3.5c-1.2-0.7-2.4-1.5-3.7-2.2c-0.9-0.5-1.7-1.2-2.2-2.1c-0.1-0.2-0.2-0.4-0.3-0.6l-0.1-0.2L278.1,165.1
	L278.1,165.1z M293.3,196.3L293.3,196.3h-13.8v-0.1l0.6-0.4l0.7-0.5c0.5-0.4,1.1-0.7,1.5-1.1c0.3-0.3,0.8-0.3,1.1-0.1
	c0.8,0.3,1.7,0.6,2.5,0.9l0.4,0.1c0.2,0,0.5,0,0.7-0.1l2.7-0.9c0.3-0.1,0.7-0.1,0.9,0.1l0.9,0.6l1.4,1l0.1,0.1l0.3,0.2V196.3
	L293.3,196.3L293.3,196.3z M284.1,203.5l-0.2-0.2v0v-0.1c0-0.2,0-0.4,0-0.6v-0.5l0.1-0.2l0.2-0.2c0.2-0.1,0.3-0.2,0.5-0.2l3.8-1.1
	c0.2-0.1,0.4-0.1,0.6-0.1c-0.2,0.3-0.5,0.6-0.9,0.8l-0.3,0.2c-1.2,0.7-2.4,1.4-3.5,2.1l-0.3,0.1L284.1,203.5L284.1,203.5z
	 M287.5,199.3l-0.4,0.3l-2.6,1.5l-0.2,0.1c-0.2,0-0.3,0-0.4-0.2c0-0.2,0-0.2,0-0.3c0-0.6,0.1-0.9,0.9-1.1c0.8-0.2,2-0.6,2.9-0.8
	l0.4-0.1l0.1,0.1C287.9,199,287.7,199.2,287.5,199.3L287.5,199.3L287.5,199.3z M284,201.9c-0.2,0-0.3,0-0.3-0.2
	C283.7,201.9,283.8,202,284,201.9L284,201.9L284,201.9z M283.4,185l0.9,0.5c0.6,0.4,1.3,0.7,1.9,1c0.2,0.1,0.3,0.2,0.3,0.4v7.5
	c0,0.2,0,0.3,0,0.5h-0.1h-0.3l-2.4-0.9c-0.3-0.1-0.4-0.3-0.4-0.6c0-2.1,0-4.3,0-6.4v-1.5v-0.3L283.4,185L283.4,185L283.4,185z
	 M286.5,180h-0.1h-0.1l-2.6-1.5c-0.2-0.1-0.4-0.3-0.4-0.5v-3.1c0,0,0,0,0-0.2c0.2,0.1,0.3,0.1,0.5,0.2c0.5,0.3,0.9,0.5,1.4,0.8
	c0.2,0.1,0.4,0.2,0.6,0.3c0.5,0.1,0.6,0.4,0.6,0.9C286.5,178,286.5,179,286.5,180L286.5,180L286.5,180z M290.2,184l0.2-0.3l0.6,0.1
	l0.2,0.2v0.1c0.3,0.6,0.4,1.2,0.5,1.8l-0.1,0.1l-0.1-0.2c-0.4-0.5-0.8-1-1.2-1.5v-0.1L290.2,184L290.2,184L290.2,184z M293.7,186.4
	c0,0.2-0.1,0.4-0.2,0.6h-0.1l-0.1-0.3c-0.3-0.9-0.5-1.8-0.9-2.7c-0.1-0.3-0.2-0.5-0.2-0.8c0-0.2,0-0.3,0-0.5c0.1-0.3,0.1-0.7,0.1-1
	v-0.1c-0.2-1-1.1-1.6-2-1.5H290c-0.1-0.8-0.1-1.6,0-2.4v-0.7l0.1,0.2l0.2,0.3l1.4,2.3c0.2,0.3,0.4,0.6,0.5,1
	c0.5,0.8,0.8,1.6,1.1,2.5c0.2,0.5,0.3,1,0.4,1.5C293.8,185.2,293.8,185.8,293.7,186.4L293.7,186.4L293.7,186.4z M285.9,206.9
	L285.9,206.9l0.8-0.2c0.8-0.2,1.5-0.4,2.3-0.6c-0.3,0.3-0.6,0.6-1,0.8c-0.9,0.8-2,1.4-2.9,2.2l-0.2,0.2l0.3,0.1h0.2h0.2l1.8-0.5
	l1.3-0.5h0.4v0.1c-0.1,0.1-0.3,0.3-0.4,0.4l-0.6,0.4l-2.5,1.5l-0.9,0.6l-0.4,0.3l0.1,0.1c0.2,0,0.4,0,0.6-0.1l0.3-0.1l2.7-0.8
	c0.2-0.1,0.5-0.1,0.8,0c-0.1,0.2-0.3,0.3-0.4,0.4l-0.2,0.2l-1.5,1c-0.5,0.3-1,0.5-1.5,0.5c-0.3,0.1-0.6,0.1-0.9,0
	c-0.4,0-0.5-0.2-0.5-0.6c0-0.4,0-0.9,0-1.3c0-0.7,0-1.5,0-2.2v-0.1c0-0.4,0.1-0.7,0.5-0.9C284.8,207.4,285.4,207.1,285.9,206.9
	L285.9,206.9z M292.2,161.5L292.2,161.5l-0.2,0.3c-0.6,1.1-0.9,2.3-1.1,3.6c0,0.3-0.1,0.6-0.1,0.8c-0.2,2.7,0,5.5,0.4,8.1v0.3h-0.1
	l-0.2-0.3c-0.3-0.5-0.5-0.9-0.8-1.4c0-0.1,0-0.3,0-0.4v-16.2v-1l2.3,3.9c0.1,0.2,0.2,0.3,0.3,0.4l0.2,0.2
	C292.5,160.9,292.2,161.6,292.2,161.5L292.2,161.5L292.2,161.5z M283,154.3c0,1.1,0,2.2,0,3.3h-0.1l-0.1-0.6c-0.1-0.5-0.3-1-0.5-1.5
	L283,154.3L283,154.3z M282.5,199.2c0.2,0.1,0.4,0.2,0.4,0.5v1.1l-1.2-2L282.5,199.2L282.5,199.2z M288,220.1
	c-0.6,0.9-1.8,1.3-2.7,0.7c-0.3-0.2-0.5-0.4-0.7-0.7l-2.5-4.3h0.2c0.4,0.2,0.9,0.3,1.4,0.4h5.1c0.5,0,1-0.1,1.4-0.4h0.3L288,220.1
	L288,220.1z M324.2,199.4c-0.4,0.6-1,1-1.7,1h-17.2c-3.5,0-6.8,1.9-8.6,4.9l-4.8,8.2v-0.3v-0.1h-1.5v-0.2v-0.2c0-2.8,0-5.6,0-8.4
	l3.3-5.6l0.2-0.2l-0.2,1.1l1.2-2.1c1-1.6,2.7-2.6,4.6-2.6h14c0.8,0,1.5-0.8,1.5-1.6c0-0.2-0.1-0.4-0.2-0.6l-7.1-12.2
	c-0.9-1.6-0.9-3.6,0-5.2l7.1-12.2c0.3-0.5,0.3-1.1,0-1.5c-0.3-0.4-0.8-0.7-1.3-0.7h-14.2c-0.8,0-1.6-0.2-2.4-0.6l-0.2-0.1
	c0-0.5,0-1,0-1.4c0-0.8-0.1-1.6-0.2-2.4c0-0.4-0.1-0.8-0.1-1.3c0-0.4-0.1-0.4-0.1-0.6h-0.2c-0.6,1-1.2,2-1.7,3.1l-4.1-6.9
	c0-0.2,0-0.4,0-0.6c-0.1-3-0.8-5.9-2.2-8.5c-0.4-0.7-0.8-1.3-1.2-1.9l-0.2-0.3l-0.3,0.3c-1.1,1.3-1.9,2.8-2.4,4.5
	c-0.6,1.8-0.9,3.6-1,5.5l-2.4,4.1c-0.9-0.7-2-1.2-3.1-1.6c-0.4-0.2-0.5-0.1-0.6,0.3c-0.4,1.3-0.5,2.6-0.3,3.9c0,0.9,0.3,1.7,0.7,2.4
	l0.2,0.3l-0.1,0.1c-1,1.1-2.4,1.8-3.9,1.8h-14.2c-0.5,0-1,0.3-1.3,0.7c-0.3,0.5-0.3,1.1,0,1.5l7.1,12.2c0.9,1.6,0.9,3.6,0,5.2
	l-7.1,12.2c-0.4,0.7-0.1,1.7,0.7,2.1c0.2,0.1,0.4,0.2,0.6,0.2h14.2c1.9,0,3.7,1,4.6,2.6l4.3,7.4l-0.2,0.1c-0.2,0.2-0.4,0.3-0.7,0.4
	c-0.4,0.2-0.7,0.6-0.8,1.1c-0.2,1-0.2,2-0.2,3.1v0.2c0.2,0.1,0.3,0,0.4-0.1l1.4-1l0.4-0.3l0.1,0.3c0,1.5,0,2.9,0,4.4v0.3h-2.1v0.1
	v0.2l-4.7-8.1c-1.8-3-5-4.9-8.6-4.9h-17.3c-0.7,0-1.4-0.4-1.7-1c-0.4-0.6-0.4-1.4,0-2l8.6-14.9c1.8-3.1,1.8-6.8,0-9.9l-8.6-14.9
	c-0.4-0.6-0.4-1.4,0-2c0.3-0.6,1-1,1.7-1h17.2c3.5,0,6.8-1.9,8.6-4.9l8.6-14.9c0.5-0.9,1.7-1.3,2.7-0.7c0.3,0.2,0.6,0.4,0.7,0.7
	l8.6,14.9c1.8,3,5.1,4.9,8.6,4.9h17.3c0.7,0,1.4,0.4,1.7,1c0.4,0.6,0.4,1.4,0,2l-8.6,14.9c-1.8,3.1-1.8,6.8,0,9.9l8.6,14.9
	C324.5,198.1,324.6,198.8,324.2,199.4L324.2,199.4z"/>
</svg>
